# xmcd
#
# Track frame offsets:
# 150
# 12329
# 28916
# 41265
# 54943
# 68917
# 81839
# 95885
# 108738
# 122692
# 135944
# 150227
# 163333
#
# Disc length: 2347 seconds
#
#
# Revision: 0
# Processed by: cddbd v1.5.1PL0 Copyright (c) Steve Scherf et al.
# Submitted via: FreeRIP 2.942 
#
DISCID=a509290d
DTITLE=Gene Watson - Then and Now
DYEAR=2005
DGENRE=Country
TTITLE0=If I'm A Fool For Leaving
TTITLE1=Only Yesterday
TTITLE2=If I Were You
TTITLE3=Baby Me Baby
TTITLE4=Back In The Fire
TTITLE5=You Could Know As Much
TTITLE6=I Didn't Think Of You At All
TTITLE7=Sometimes I Get Lucky
TTITLE8=Everybody Needs A Hero
TTITLE9=I Wonder How It Is In Colorado
TTITLE10=The Jukebox Played Along
TTITLE11=You Put Out An Old Flame Last Night
TTITLE12=I Catch Myself
EXTD=Koch Records
EXTT0=
EXTT1=
EXTT2=
EXTT3=
EXTT4=
EXTT5=
EXTT6=
EXTT7=
EXTT8=
EXTT9=
EXTT10=
EXTT11=
EXTT12=
PLAYORDER=
